<?xml version="1.0" encoding="utf-8"?>
<!-- Generator: Adobe Illustrator 22.1.0, SVG Export Plug-In . SVG Version: 6.00 Build 0)  -->
<svg version="1.1" id="Livello_1" xmlns="http://www.w3.org/2000/svg" x="0px" y="0px"
     viewBox="0 0 1024 1024" style="enable-background:new 0 0 1024 1024;" xml:space="preserve">
<style type="text/css">
	.st0{display:none;}
	.st1{display:inline;fill:#29ABE2;stroke:#FFFFFF;stroke-width:8;stroke-miterlimit:10;}
	.st2{fill:none;stroke:#FFFFFF;stroke-width:36;stroke-miterlimit:10;}
	.st3{display:inline;fill:none;stroke:#FFFFFF;stroke-width:21;stroke-miterlimit:10;}
	.st4{display:inline;}
	.st5{font-family:'Broadway';}
	.st6{font-size:779.5249px;}
	.st7{font-size:681.8174px;}
	.st8{font-size:802.3148px;}
</style>
    <g id="Livello_3" class="st0">
	<rect x="-64.2" y="-16.2" class="st1" width="1303.6" height="1194.1"/>
</g>
    <g id="Livello_1_1_">
	<path class="st2" d="M870.4,475.8C824.9,396.8,766,342,693.7,311.3c-7.2-3-14.3-5.7-21.4-8.1l3.6-250.8c0.3-19.3-18-33.6-36.7-28.6
		L487,64.1l-51,13.1l-136.3,34c-27.1,6.6-43.5,11.5-49.1,14.6s-8.4,9.1-8.4,17.8c0,11.9,5.4,59,16.3,59c5.8,0,12.7-1.4,20.6-4.2
		l78.7-23.5l0,0c5.4-1.6,10.9,2.5,10.9,8.2v10.7l-0.4,11.4c-0.1,19.8-8.5,35.5-27.8,39.8l-37.6,8.3c-26.8,5.8-42.9,10.1-48.5,12.8
		c-5.5,2.7-8.3,7.9-8.3,15.6c0,10.4-0.1,49.9,10.6,49.9c5.7,0,12.5-1.2,20.3-3.7l77.6-20.6l0,0c5.4-1.4,10.7,2.7,10.7,8.3v8.2
		l-1.1,101.5l0,0c-0.3,21.7-22.1,36.5-42.3,28.6c-15.5-6.1-30.1-10.1-43.9-11.8c-28.4-3.6-56.1,1.9-83.4,16.5
		c-20.3,10.8-37.7,26.6-52.2,47.4c-14.5,20.7-23.9,43-28,66.7c-12.6,72.9,3.8,148.7,49.1,227.4c24.4,42.4,55.4,80,93,113
		c51.3,45.2,103.8,72.1,157.7,80.8c57.1,9.3,109.4,1.3,156.9-24.1c52.8-28.3,87.2-69.6,103.1-123.9c4.1-13.9,7.6-31.3,10.3-52
		c2.2-17,19.8-27.6,35.9-21.6c18.7,6.9,35.8,10.8,51.4,11.8c24.2,1.4,48.5-4.4,72.9-17.4c43-23,67.6-57.3,73.7-102.8
		C925.8,606.7,909.8,544,870.4,475.8z M358.7,798.7c-1.5,29.7-9.1,48.1-22.5,55.4c-12.5,6.7-29.3,1.5-50.4-15.6
		c-21.2-17.1-40.8-41.3-58.9-72.7c-29.1-50.5-41.2-100.7-36.3-150.4c1.6-17.5,7.1-33.7,16.7-48.6c9.6-14.9,21.7-26.3,36.5-34.2
		c23.4-12.5,48.7-14,75.8-4.5c11.1,3.7,25.6,11.3,43.6,22.8v0.3c-5.6,48.4-7.8,87-6.5,115.8C359,736.3,359.7,780.2,358.7,798.7z
		 M832.4,621.3c-1.9,32.8-17.9,57.3-48.1,73.4c-17.4,9.3-34.8,13-52.1,11.1s-37.8-9.8-61.4-23.7l-3.3-47.4
		c-2.1-24.7-3.7-46.6-4.8-65.9l-0.8-126.7c2.9-44,3.6-41.8,18.6-49.8c13.5-7.2,38.3,15.3,57.9,30.6c2.3,1.8,48.6,56.4,57.5,71.8
		C822,540.4,834.2,582.6,832.4,621.3z"/>
</g>
    <g id="Livello_4" class="st0">
	<path class="st3" d="M794.4,273.8c-33.1-57.5-76-97.4-128.6-119.7c-5.2-2.2-10.4-4.2-15.6-5.9l3.1-210.5l-138,36.6l-37.1,9.5
		L379,8.5c-19.8,4.8-31.7,8.4-35.8,10.7c-4.1,2.3-6.1,6.6-6.1,12.9c0,8.6,4,12.9,11.9,12.9c4.2,0,9.2-1,15-3l57.3-17.1l7.9-2.3v16
		l-0.4,62.9l-51.4,11.4c-19.5,4.2-31.2,7.3-35.3,9.3c-4,2-6,5.8-6,11.3c0,7.5,3.9,11.3,11.7,11.3c4.2,0,9.1-0.9,14.8-2.7l56.5-15
		l7.8-2v14l-0.8,97.9l-0.4,35.8c-22.9-13.4-43.7-21.2-62.3-23.6c-20.6-2.6-40.9,1.4-60.7,12c-14.7,7.9-27.4,19.4-38,34.5
		s-17.4,31.3-20.4,48.6c-9.2,53.1,2.7,108.2,35.7,165.5c17.8,30.8,40.3,58.2,67.7,82.2c37.3,32.9,75.6,52.5,114.8,58.8
		c41.6,6.8,79.6,0.9,114.2-17.5c38.5-20.6,63.5-50.6,75-90.2c4.6-15.5,8-36.8,10.2-63.8c22.9,11.5,43.2,17.8,60.8,18.9
		c17.6,1,35.3-3.2,53-12.7c31.3-16.7,49.2-41.7,53.6-74.8C834.7,369.1,823,323.5,794.4,273.8z M421.2,526.5
		c-1.4,26.9-8.2,43.6-20.4,50.1c-11.3,6-26.5,1.3-45.6-14.1c-19.1-15.4-36.9-37.4-53.3-65.8c-26.3-45.7-37.3-91.1-32.8-136.1
		c1.4-15.8,6.4-30.5,15.1-44c8.6-13.5,19.7-23.8,33-30.9c21.2-11.3,44.1-12.7,68.6-4c10,3.3,23.2,10.2,39.5,20.7v0.3
		c-5.1,43.8-7,78.7-5.9,104.7C421.5,470.1,422.1,509.8,421.2,526.5z M802.3,395c-1.7,29-15.8,50.7-42.5,65
		c-15.4,8.3-30.8,11.5-46.1,9.8s-33.4-8.7-54.4-21l-2.9-42c-1.9-21.9-3.3-41.3-4.3-58.3l-0.8-70.8c2.6-38.9,10.5-62,23.7-69
		c12-6.4,26.6-2.8,43.9,10.7c17.3,13.5,34.2,34.7,50.9,63.6C793.1,323.4,803.9,360.7,802.3,395z"/>
</g>
    <g id="Livello_2_1_" class="st0">
	<text transform="matrix(1.0381 0 0 1 273.0605 671.5674)" class="st4 st5 st6">1</text>
        <text transform="matrix(1.1705 0 0 1 273.0625 718.6494)" class="st4 st5 st7">1</text>
        <text transform="matrix(0.4896 0.8495 -0.8818 0.4716 191.4673 505.4595)" class="st4 st5 st8">8</text>
</g>
</svg>
